<?xml version="1.0" encoding="utf-8"?>
<svg viewBox="0 0 1024 1024" style="width: 1em; height: 1em;vertical-align: middle;fill: currentColor;overflow: hidden;" xmlns="http://www.w3.org/2000/svg">
  <path d="M 823.9 331.924 L 630.396 115.4 L 270.435 115.4 C 248.453 120.441 240.876 119.912 221.373 135.362 L 221.33 135.409 L 221.224 135.51 C 207.95 151.698 202.571 161.599 200.08 184.725 L 200.1 838.264 C 204.96 862.186 206.712 870.763 220.416 887.67 C 235.406 899.669 244.733 904.204 269.384 908.62 L 753.564 908.6 C 775.235 907.536 798.215 893.958 802.969 888.285 C 815.104 873.805 822.428 859.566 823.921 839.316 L 823.904 519.879 L 823.9 331.924 Z M 815.924 840.348 C 814.436 854.48 806.317 872.253 798.3 881.779 L 797.451 882.758 L 796.862 883.268 L 796.708 883.404 L 796.631 883.471 L 796.325 883.732 C 786.344 891.944 767.249 899.435 753.527 900.7 L 268.454 900.634 L 268.403 900.629 L 268.353 900.624 C 254.219 899.136 236.446 891.017 226.921 882.998 L 225.959 882.164 L 225.915 882.115 L 225.865 882.058 L 225.431 881.562 L 225.322 881.437 L 225.272 881.379 L 224.962 881.021 C 216.756 871.04 209.265 851.95 208 838.227 L 208.065 183.779 L 208.07 183.728 L 208.075 183.679 C 209.553 169.545 217.878 151.464 226.036 141.892 L 226.735 141.11 L 227.016 140.865 L 227.426 140.507 L 227.617 140.343 C 237.685 132.012 256.846 124.533 270.473 123.3 L 626.804 123.3 L 816 334.976 L 816 344.526 L 815.934 840.247 L 815.929 840.297 L 815.924 840.348 Z" fill="#23202D"/>
</svg>